  0
SECTION
  2
HEADER
  9
$ACADVER
  1
AC1024
  9
$ACADMAINTVER
 70
     6
  9
$DWGCODEPAGE
  3
UNDEFINED
  9
$INSBASE
 10
0.0
 20
0.0
 30
0.0
  9
$EXTMIN
 10
1.000000000000000E+20
 20
1.000000000000000E+20
 30
1.000000000000000E+20
  9
$EXTMAX
 10
-1.000000000000000E+20
 20
-1.000000000000000E+20
 30
-1.000000000000000E+20
  9
$LIMMIN
 10
0.0
 20
0.0
  9
$LIMMAX
 10
12.0
 20
9.0
  9
$ORTHOMODE
 70
     0
  9
$REGENMODE
 70
     1
  9
$FILLMODE
 70
     1
  9
$QTEXTMODE
 70
     0
  9
$MIRRTEXT
 70
     1
  9
$LTSCALE
 40
1.0
  9
$ATTMODE
 70
     1
  9
$TEXTSIZE
 40
0.2
  9
$TRACEWID
 40
0.05
  9
$TEXTSTYLE
  7
Standard
  9
$CLAYER
  8
0
  9
$CELTYPE
  6
ByLayer
  9
$CECOLOR
 62
   256
  9
$CELTSCALE
 40
1.0
  9
$DISPSILH
 70
     0
  9
$DIMSCALE
 40
1.0
  9
$DIMASZ
 40
0.18
  9
$DIMEXO
 40
0.0625
  9
$DIMDLI
 40
0.38
  9
$DIMRND
 40
0.0
  9
$DIMDLE
 40
0.0
  9
$DIMEXE
 40
0.18
  9
$DIMTP
 40
0.0
  9
$DIMTM
 40
0.0
  9
$DIMTXT
 40
0.18
  9
$DIMCEN
 40
0.09
  9
$DIMTSZ
 40
0.0
  9
$DIMTOL
 70
     0
  9
$DIMLIM
 70
     0
  9
$DIMTIH
 70
     1
  9
$DIMTOH
 70
     1
  9
$DIMSE1
 70
     0
  9
$DIMSE2
 70
     0
  9
$DIMTAD
 70
     0
  9
$DIMZIN
 70
     0
  9
$DIMBLK
  1

  9
$DIMASO
 70
     1
  9
$DIMSHO
 70
     1
  9
$DIMPOST
  1

  9
$DIMAPOST
  1

  9
$DIMALT
 70
     0
  9
$DIMALTD
 70
     2
  9
$DIMALTF
 40
25.4
  9
$DIMLFAC
 40
1.0
  9
$DIMTOFL
 70
     0
  9
$DIMTVP
 40
0.0
  9
$DIMTIX
 70
     0
  9
$DIMSOXD
 70
     0
  9
$DIMSAH
 70
     0
  9
$DIMBLK1
  1

  9
$DIMBLK2
  1

  9
$DIMSTYLE
  2
Standard
  9
$DIMCLRD
 70
     0
  9
$DIMCLRE
 70
     0
  9
$DIMCLRT
 70
     0
  9
$DIMTFAC
 40
1.0
  9
$DIMGAP
 40
0.09
  9
$DIMJUST
 70
     0
  9
$DIMSD1
 70
     0
  9
$DIMSD2
 70
     0
  9
$DIMTOLJ
 70
     1
  9
$DIMTZIN
 70
     0
  9
$DIMALTZ
 70
     0
  9
$DIMALTTZ
 70
     0
  9
$DIMUPT
 70
     0
  9
$DIMDEC
 70
     4
  9
$DIMTDEC
 70
     4
  9
$DIMALTU
 70
     2
  9
$DIMALTTD
 70
     2
  9
$DIMTXSTY
  7
Standard
  9
$DIMAUNIT
 70
     0
  9
$DIMADEC
 70
     0
  9
$DIMALTRND
 40
0.0
  9
$DIMAZIN
 70
     0
  9
$DIMDSEP
 70
    46
  9
$DIMATFIT
 70
     3
  9
$DIMFRAC
 70
     0
  9
$DIMLDRBLK
  1

  9
$DIMLUNIT
 70
     2
  9
$DIMLWD
 70
    -2
  9
$DIMLWE
 70
    -2
  9
$DIMTMOVE
 70
     0
  9
$DIMFXL
 40
1.0
  9
$DIMFXLON
 70
     0
  9
$DIMJOGANG
 40
0.7853981633974483
  9
$DIMTFILL
 70
     0
  9
$DIMTFILLCLR
 70
     0
  9
$DIMARCSYM
 70
     0
  9
$DIMLTYPE
  6

  9
$DIMLTEX1
  6

  9
$DIMLTEX2
  6

  9
$DIMTXTDIRECTION
 70
     0
  9
$LUNITS
 70
     2
  9
$LUPREC
 70
     4
  9
$SKETCHINC
 40
0.1
  9
$FILLETRAD
 40
0.5
  9
$AUNITS
 70
     0
  9
$AUPREC
 70
     0
  9
$MENU
  1
.
  9
$ELEVATION
 40
0.0
  9
$PELEVATION
 40
0.0
  9
$THICKNESS
 40
0.0
  9
$LIMCHECK
 70
     0
  9
$CHAMFERA
 40
0.5
  9
$CHAMFERB
 40
0.5
  9
$CHAMFERC
 40
1.0
  9
$CHAMFERD
 40
0.0
  9
$SKPOLY
 70
     0
  9
$TDCREATE
 40
2459331.706990729
  9
$TDUCREATE
 40
2459332.040324074
  9
$TDUPDATE
 40
2459331.706990729
  9
$TDUUPDATE
 40
2459332.040324074
  9
$TDINDWG
 40
0.0000000116
  9
$TDUSRTIMER
 40
0.0000000116
  9
$USRTIMER
 70
     1
  9
$ANGBASE
 50
0.0
  9
$ANGDIR
 70
     0
  9
$PDMODE
 70
     0
  9
$PDSIZE
 40
0.0
  9
$PLINEWID
 40
0.0
  9
$SPLFRAME
 70
     0
  9
$SPLINETYPE
 70
     6
  9
$SPLINESEGS
 70
     8
  9
$HANDSEED
  5
44
  9
$SURFTAB1
 70
     6
  9
$SURFTAB2
 70
     6
  9
$SURFTYPE
 70
     6
  9
$SURFU
 70
     6
  9
$SURFV
 70
     6
  9
$UCSBASE
  2

  9
$UCSNAME
  2

  9
$UCSORG
 10
0.0
 20
0.0
 30
0.0
  9
$UCSXDIR
 10
1.0
 20
0.0
 30
0.0
  9
$UCSYDIR
 10
0.0
 20
1.0
 30
0.0
  9
$UCSORTHOREF
  2

  9
$UCSORTHOVIEW
 70
     0
  9
$UCSORGTOP
 10
0.0
 20
0.0
 30
0.0
  9
$UCSORGBOTTOM
 10
0.0
 20
0.0
 30
0.0
  9
$UCSORGLEFT
 10
0.0
 20
0.0
 30
0.0
  9
$UCSORGRIGHT
 10
0.0
 20
0.0
 30
0.0
  9
$UCSORGFRONT
 10
0.0
 20
0.0
 30
0.0
  9
$UCSORGBACK
 10
0.0
 20
0.0
 30
0.0
  9
$PUCSBASE
  2

  9
$PUCSNAME
  2

  9
$PUCSORG
 10
0.0
 20
0.0
 30
0.0
  9
$PUCSXDIR
 10
1.0
 20
0.0
 30
0.0
  9
$PUCSYDIR
 10
0.0
 20
1.0
 30
0.0
  9
$PUCSORTHOREF
  2

  9
$PUCSORTHOVIEW
 70
     0
  9
$PUCSORGTOP
 10
0.0
 20
0.0
 30
0.0
  9
$PUCSORGBOTTOM
 10
0.0
 20
0.0
 30
0.0
  9
$PUCSORGLEFT
 10
0.0
 20
0.0
 30
0.0
  9
$PUCSORGRIGHT
 10
0.0
 20
0.0
 30
0.0
  9
$PUCSORGFRONT
 10
0.0
 20
0.0
 30
0.0
  9
$PUCSORGBACK
 10
0.0
 20
0.0
 30
0.0
  9
$USERI1
 70
     0
  9
$USERI2
 70
     0
  9
$USERI3
 70
     0
  9
$USERI4
 70
     0
  9
$USERI5
 70
     0
  9
$USERR1
 40
0.0
  9
$USERR2
 40
0.0
  9
$USERR3
 40
0.0
  9
$USERR4
 40
0.0
  9
$USERR5
 40
0.0
  9
$WORLDVIEW
 70
     1
  9
$SHADEDGE
 70
     3
  9
$SHADEDIF
 70
    70
  9
$TILEMODE
 70
     1
  9
$MAXACTVP
 70
    64
  9
$PINSBASE
 10
0.0
 20
0.0
 30
0.0
  9
$PLIMCHECK
 70
     0
  9
$PEXTMIN
 10
1.000000000000000E+20
 20
1.000000000000000E+20
 30
1.000000000000000E+20
  9
$PEXTMAX
 10
-1.000000000000000E+20
 20
-1.000000000000000E+20
 30
-1.000000000000000E+20
  9
$PLIMMIN
 10
0.0
 20
0.0
  9
$PLIMMAX
 10
12.0
 20
9.0
  9
$UNITMODE
 70
     0
  9
$VISRETAIN
 70
     1
  9
$PLINEGEN
 70
     0
  9
$PSLTSCALE
 70
     1
  9
$TREEDEPTH
 70
  3020
  9
$CMLSTYLE
  2
Standard
  9
$CMLJUST
 70
     0
  9
$CMLSCALE
 40
1.0
  9
$PROXYGRAPHICS
 70
     1
  9
$MEASUREMENT
 70
     0
  9
$CELWEIGHT
370
    -1
  9
$ENDCAPS
280
     0
  9
$JOINSTYLE
280
     0
  9
$LWDISPLAY
290
     1
  9
$INSUNITS
 70
     0
  9
$HYPERLINKBASE
  1

  9
$STYLESHEET
  1

  9
$XEDIT
290
     1
  9
$CEPSNTYPE
380
     0
  9
$PSTYLEMODE
290
     1
  9
$FINGERPRINTGUID
  2
{77289CF7-36CC-044C-E29D-ABAC57F83E7C}
  9
$VERSIONGUID
  2
{FAEB1C32-E019-11D5-929B-00C0DF256EC4}
  9
$EXTNAMES
290
     1
  9
$PSVPSCALE
 40
0.0
  9
$OLESTARTUP
290
     0
  9
$SORTENTS
280
   127
  9
$INDEXCTL
280
     0
  9
$HIDETEXT
280
     1
  9
$XCLIPFRAME
280
     2
  9
$HALOGAP
280
     0
  9
$OBSCOLOR
 70
   257
  9
$OBSLTYPE
280
     0
  9
$INTERSECTIONDISPLAY
280
     0
  9
$INTERSECTIONCOLOR
 70
   257
  9
$DIMASSOC
280
     2
  9
$PROJECTNAME
  1

  9
$CAMERADISPLAY
290
     0
  9
$LENSLENGTH
 40
50.0
  9
$CAMERAHEIGHT
 40
0.0
  9
$STEPSPERSEC
 40
2.0
  9
$STEPSIZE
 40
6.0
  9
$3DDWFPREC
 40
2.0
  9
$PSOLWIDTH
 40
0.25
  9
$PSOLHEIGHT
 40
4.0
  9
$LOFTANG1
 40
1.570796326794897
  9
$LOFTANG2
 40
1.570796326794897
  9
$LOFTMAG1
 40
0.0
  9
$LOFTMAG2
 40
0.0
  9
$LOFTPARAM
 70
     7
  9
$LOFTNORMALS
280
     1
  9
$LATITUDE
 40
37.795
  9
$LONGITUDE
 40
-122.394
  9
$NORTHDIRECTION
 40
0.0
  9
$TIMEZONE
 70
 -8000
  9
$LIGHTGLYPHDISPLAY
280
     1
  9
$TILEMODELIGHTSYNCH
280
     1
  9
$CMATERIAL
347
3C
  9
$SOLIDHIST
280
     1
  9
$SHOWHIST
280
     1
  9
$DWFFRAME
280
     2
  9
$DGNFRAME
280
     2
  9
$REALWORLDSCALE
290
     1
  9
$INTERFERECOLOR
 62
   256
  9
$CSHADOW
280
     0
  9
$SHADOWPLANELOCATION
 40
0.0
  0
ENDSEC
  0
SECTION
  2
CLASSES
  0
CLASS
  1
ACDBDICTIONARYWDFLT
  2
AcDbDictionaryWithDefault
  3
ObjectDBX Classes
 90
        0
 91
        4
280
     0
281
     0
  0
CLASS
  1
VISUALSTYLE
  2
AcDbVisualStyle
  3
ObjectDBX Classes
 90
     4095
 91
        4
280
     0
281
     0
  0
CLASS
  1
MATERIAL
  2
AcDbMaterial
  3
ObjectDBX Classes
 90
     1153
 91
        4
280
     0
281
     0
  0
CLASS
  1
SUN
  2
AcDbSun
  3
SCENEOE
 90
     1024
 91
        4
280
     0
281
     0
  0
ENDSEC
  0
SECTION
  2
TABLES
  0
TABLE
  2
VPORT
  5
8
330
0
100
AcDbSymbolTable
 70
     1
  0
VPORT
  5
29
330
8
100
AcDbSymbolTableRecord
100
AcDbViewportTableRecord
  2
*Active
 70
     0
 10
0.0
 20
0.0
 11
1.0
 21
1.0
 12
0.0
 22
0.0
 13
0.0
 23
0.0
 14
0.5
 24
0.5
 15
0.5
 25
0.5
 16
0.0
 26
0.0
 36
1.0
 17
395.1304347826085
 27
-302.9565217391296
 37
0.0
 40
68.52173913043316
 41
4.274111675127001
 42
50.0
 43
0.0
 44
0.0
 50
0.0
 51
0.0
 71
     0
 72
   100
 73
     1
 74
     3
 75
     0
 76
     0
 77
     0
 78
     0
281
     0
 65
     1
110
0.0
120
0.0
130
0.0
111
1.0
121
0.0
131
0.0
112
0.0
122
1.0
132
0.0
 79
     0
146
0.0
 60
     3
 61
     5
292
     1
282
     1
141
0.0
142
0.0
 63
   250
361
3F
  0
ENDTAB
  0
TABLE
  2
LTYPE
  5
5
330
0
100
AcDbSymbolTable
 70
     1
  0
LTYPE
  5
14
330
5
100
AcDbSymbolTableRecord
100
AcDbLinetypeTableRecord
  2
ByBlock
 70
     0
  3

 72
    65
 73
     0
 40
0.0
  0
LTYPE
  5
15
330
5
100
AcDbSymbolTableRecord
100
AcDbLinetypeTableRecord
  2
ByLayer
 70
     0
  3

 72
    65
 73
     0
 40
0.0
  0
LTYPE
  5
16
330
5
100
AcDbSymbolTableRecord
100
AcDbLinetypeTableRecord
  2
Continuous
 70
     0
  3
Solid line
 72
    65
 73
     0
 40
0.0
  0
ENDTAB
  0
TABLE
  2
LAYER
  5
2
330
0
100
AcDbSymbolTable
 70
     2
  0
LAYER
  5
10
330
2
100
AcDbSymbolTableRecord
100
AcDbLayerTableRecord
  2
0
 70
     0
 62
     7
  6
Continuous
370
    -3
390
F
347
3E
  0
LAYER
  5
40
330
2
100
AcDbSymbolTableRecord
100
AcDbLayerTableRecord
  2
Layer 1
 70
     0
 62
     7
  6
Continuous
370
    -3
390
F
347
3E
  0
ENDTAB
  0
TABLE
  2
STYLE
  5
3
330
0
100
AcDbSymbolTable
 70
     1
  0
STYLE
  5
11
330
3
100
AcDbSymbolTableRecord
100
AcDbTextStyleTableRecord
  2
Standard
 70
     0
 40
0.0
 41
1.0
 50
0.0
 71
     0
 42
0.2
  3
txt
  4

  0
ENDTAB
  0
TABLE
  2
VIEW
  5
6
330
0
100
AcDbSymbolTable
 70
     0
  0
ENDTAB
  0
TABLE
  2
UCS
  5
7
330
0
100
AcDbSymbolTable
 70
     0
  0
ENDTAB
  0
TABLE
  2
APPID
  5
9
330
0
100
AcDbSymbolTable
 70
     1
  0
APPID
  5
12
330
9
100
AcDbSymbolTableRecord
100
AcDbRegAppTableRecord
  2
ACAD
 70
     0
  0
ENDTAB
  0
TABLE
  2
DIMSTYLE
  5
A
330
0
100
AcDbSymbolTable
 70
     1
100
AcDbDimStyleTable
  0
DIMSTYLE
105
27
330
A
100
AcDbSymbolTableRecord
100
AcDbDimStyleTableRecord
  2
Standard
 70
     0
178
     0
340
11
  0
ENDTAB
  0
TABLE
  2
BLOCK_RECORD
  5
1
330
0
100
AcDbSymbolTable
 70
     1
  0
BLOCK_RECORD
  5
1F
330
1
100
AcDbSymbolTableRecord
100
AcDbBlockTableRecord
  2
*Model_Space
340
22
 70
     0
280
     1
281
     0
  0
BLOCK_RECORD
  5
1B
330
1
100
AcDbSymbolTableRecord
100
AcDbBlockTableRecord
  2
*Paper_Space
340
1E
 70
     0
280
     1
281
     0
  0
BLOCK_RECORD
  5
23
330
1
100
AcDbSymbolTableRecord
100
AcDbBlockTableRecord
  2
*Paper_Space0
340
26
 70
     0
280
     1
281
     0
  0
ENDTAB
  0
ENDSEC
  0
SECTION
  2
BLOCKS
  0
BLOCK
  5
20
330
1F
100
AcDbEntity
  8
0
100
AcDbBlockBegin
  2
*Model_Space
 70
     0
 10
0.0
 20
0.0
 30
0.0
  3
*Model_Space
  1

  0
ENDBLK
  5
21
330
1F
100
AcDbEntity
  8
0
100
AcDbBlockEnd
  0
BLOCK
  5
1C
330
1B
100
AcDbEntity
 67
     1
  8
0
100
AcDbBlockBegin
  2
*Paper_Space
 70
     0
 10
0.0
 20
0.0
 30
0.0
  3
*Paper_Space
  1

  0
ENDBLK
  5
1D
330
1B
100
AcDbEntity
 67
     1
  8
0
100
AcDbBlockEnd
  0
BLOCK
  5
24
330
23
100
AcDbEntity
  8
0
100
AcDbBlockBegin
  2
*Paper_Space0
 70
     0
 10
0.0
 20
0.0
 30
0.0
  3
*Paper_Space0
  1

  0
ENDBLK
  5
25
330
23
100
AcDbEntity
  8
0
100
AcDbBlockEnd
  0
ENDSEC
  0
SECTION
  2
ENTITIES
  0
SPLINE
  5
41
330
1F
100
AcDbEntity
  8
Layer 1
 62
     7
420
 16777215
370
    35
100
AcDbSpline
210
0.0
220
0.0
230
1.0
 70
    11
 71
     3
 72
   347
 73
   343
 74
     0
 42
0.0000000001
 43
0.0000000001
 12
1.0
 22
0.0
 32
0.0
 13
1.0
 23
0.0
 33
0.0
 40
0.0
 40
0.0
 40
0.0
 40
0.0
 40
1.0
 40
1.0
 40
1.0
 40
2.0
 40
2.0
 40
2.0
 40
3.0
 40
3.0
 40
3.0
 40
4.0
 40
4.0
 40
4.0
 40
5.0
 40
5.0
 40
5.0
 40
6.0
 40
6.0
 40
6.0
 40
7.0
 40
7.0
 40
7.0
 40
8.0
 40
8.0
 40
8.0
 40
9.0
 40
9.0
 40
9.0
 40
10.0
 40
10.0
 40
10.0
 40
11.0
 40
11.0
 40
11.0
 40
12.0
 40
12.0
 40
12.0
 40
13.0
 40
13.0
 40
13.0
 40
14.0
 40
14.0
 40
14.0
 40
15.0
 40
15.0
 40
15.0
 40
16.0
 40
16.0
 40
16.0
 40
17.0
 40
17.0
 40
17.0
 40
18.0
 40
18.0
 40
18.0
 40
19.0
 40
19.0
 40
19.0
 40
20.0
 40
20.0
 40
20.0
 40
21.0
 40
21.0
 40
21.0
 40
22.0
 40
22.0
 40
22.0
 40
23.0
 40
23.0
 40
23.0
 40
24.0
 40
24.0
 40
24.0
 40
25.0
 40
25.0
 40
25.0
 40
26.0
 40
26.0
 40
26.0
 40
27.0
 40
27.0
 40
27.0
 40
28.0
 40
28.0
 40
28.0
 40
29.0
 40
29.0
 40
29.0
 40
30.0
 40
30.0
 40
30.0
 40
31.0
 40
31.0
 40
31.0
 40
32.0
 40
32.0
 40
32.0
 40
33.0
 40
33.0
 40
33.0
 40
34.0
 40
34.0
 40
34.0
 40
35.0
 40
35.0
 40
35.0
 40
36.0
 40
36.0
 40
36.0
 40
37.0
 40
37.0
 40
37.0
 40
38.0
 40
38.0
 40
38.0
 40
39.0
 40
39.0
 40
39.0
 40
40.0
 40
40.0
 40
40.0
 40
41.0
 40
41.0
 40
41.0
 40
42.0
 40
42.0
 40
42.0
 40
43.0
 40
43.0
 40
43.0
 40
44.0
 40
44.0
 40
44.0
 40
45.0
 40
45.0
 40
45.0
 40
46.0
 40
46.0
 40
46.0
 40
47.0
 40
47.0
 40
47.0
 40
48.0
 40
48.0
 40
48.0
 40
49.0
 40
49.0
 40
49.0
 40
50.0
 40
50.0
 40
50.0
 40
51.0
 40
51.0
 40
51.0
 40
52.0
 40
52.0
 40
52.0
 40
53.0
 40
53.0
 40
53.0
 40
54.0
 40
54.0
 40
54.0
 40
55.0
 40
55.0
 40
55.0
 40
56.0
 40
56.0
 40
56.0
 40
57.0
 40
57.0
 40
57.0
 40
58.0
 40
58.0
 40
58.0
 40
59.0
 40
59.0
 40
59.0
 40
60.0
 40
60.0
 40
60.0
 40
61.0
 40
61.0
 40
61.0
 40
62.0
 40
62.0
 40
62.0
 40
63.0
 40
63.0
 40
63.0
 40
64.0
 40
64.0
 40
64.0
 40
65.0
 40
65.0
 40
65.0
 40
66.0
 40
66.0
 40
66.0
 40
67.0
 40
67.0
 40
67.0
 40
68.0
 40
68.0
 40
68.0
 40
69.0
 40
69.0
 40
69.0
 40
70.0
 40
70.0
 40
70.0
 40
71.0
 40
71.0
 40
71.0
 40
72.0
 40
72.0
 40
72.0
 40
73.0
 40
73.0
 40
73.0
 40
74.0
 40
74.0
 40
74.0
 40
75.0
 40
75.0
 40
75.0
 40
76.0
 40
76.0
 40
76.0
 40
77.0
 40
77.0
 40
77.0
 40
78.0
 40
78.0
 40
78.0
 40
79.0
 40
79.0
 40
79.0
 40
80.0
 40
80.0
 40
80.0
 40
81.0
 40
81.0
 40
81.0
 40
82.0
 40
82.0
 40
82.0
 40
83.0
 40
83.0
 40
83.0
 40
84.0
 40
84.0
 40
84.0
 40
85.0
 40
85.0
 40
85.0
 40
86.0
 40
86.0
 40
86.0
 40
87.0
 40
87.0
 40
87.0
 40
88.0
 40
88.0
 40
88.0
 40
89.0
 40
89.0
 40
89.0
 40
90.0
 40
90.0
 40
90.0
 40
91.0
 40
91.0
 40
91.0
 40
92.0
 40
92.0
 40
92.0
 40
93.0
 40
93.0
 40
93.0
 40
94.0
 40
94.0
 40
94.0
 40
95.0
 40
95.0
 40
95.0
 40
96.0
 40
96.0
 40
96.0
 40
97.0
 40
97.0
 40
97.0
 40
98.0
 40
98.0
 40
98.0
 40
99.0
 40
99.0
 40
99.0
 40
100.0
 40
100.0
 40
100.0
 40
101.0
 40
101.0
 40
101.0
 40
102.0
 40
102.0
 40
102.0
 40
103.0
 40
103.0
 40
103.0
 40
104.0
 40
104.0
 40
104.0
 40
105.0
 40
105.0
 40
105.0
 40
106.0
 40
106.0
 40
106.0
 40
107.0
 40
107.0
 40
107.0
 40
108.0
 40
108.0
 40
108.0
 40
109.0
 40
109.0
 40
109.0
 40
110.0
 40
110.0
 40
110.0
 40
111.0
 40
111.0
 40
111.0
 40
112.0
 40
112.0
 40
112.0
 40
113.0
 40
113.0
 40
113.0
 40
114.0
 40
114.0
 40
114.0
 40
114.0
 10
258.2699918597527
 20
-309.8292005030034
 30
0.0
 10
257.1179885297188
 20
-304.0521928400931
 30
0.0
 10
257.1729223235889
 20
-298.0340934067335
 30
0.0
 10
258.4531080959587
 20
-292.2832471763086
 30
0.0
 10
260.5204759643166
 20
-282.9962437135937
 30
0.0
 10
269.7480980803339
 20
-275.0879635883057
 30
0.0
 10
279.6783971335735
 20
-276.798068029756
 30
0.0
 10
282.5335498748746
 20
-277.2897560801102
 30
0.0
 10
285.4021059222978
 20
-277.7030807157644
 30
0.0
 10
288.2602626884973
 20
-278.1779960275462
 30
0.0
 10
291.7348353253101
 20
-278.7553564048694
 30
0.0
 10
295.2024079469002
 20
-279.3748559224432
 30
0.0
 10
298.677368457008
 20
-279.9497719661704
 30
0.0
 10
301.0355502709317
 20
-280.3399285908708
 30
0.0
 10
303.4000734473129
 20
-280.6923956406681
 30
0.0
 10
305.7638464913771
 20
-281.0479071299142
 30
0.0
 10
308.5535483236617
 20
-281.4674835781307
 30
0.0
 10
311.3468507910629
 20
-281.8631728860591
 30
0.0
 10
314.1360549745905
 20
-282.285940141006
 30
0.0
 10
316.6141765014308
 20
-282.661533076388
 30
0.0
 10
319.086260382579
 20
-283.0773037994659
 30
0.0
 10
321.565604070146
 20
-283.4443489265041
 30
0.0
 10
324.2775734712832
 20
-283.8458322259139
 30
0.0
 10
327.0859984548124
 20
-284.4909312813625
 30
0.0
 10
329.8653955852133
 20
-284.7823362640747
 30
0.0
 10
332.6464507917553
 20
-285.0739150872369
 30
0.0
 10
335.3403004512038
 20
-284.7914339760509
 30
0.0
 10
338.0799638123644
 20
-284.3887549594629
 30
0.0
 10
339.7070703302752
 20
-284.1496200954798
 30
0.0
 10
341.3356990679094
 20
-283.9207894880901
 30
0.0
 10
342.9639692057062
 20
-283.6896755511152
 30
0.0
 10
344.0117832981823
 20
-283.5409224832565
 30
0.0
 10
345.0652032575272
 20
-283.2492710387869
 30
0.0
 10
346.1070967934793
 20
-283.2848968350254
 30
0.0
 10
347.5866211817811
 20
-283.3354813673996
 30
0.0
 10
349.0545166895936
 20
-283.6610753843734
 30
0.0
 10
350.5332360578495
 20
-283.8115263126929
 30
0.0
 10
355.3309872123946
 20
-284.2996026484998
 30
0.0
 10
359.9446449190418
 20
-286.1522904201565
 30
0.0
 10
364.8420795104312
 20
-285.8233006822602
 30
0.0
 10
366.8708690764342
 20
-285.6869888333031
 30
0.0
 10
368.8978217330587
 20
-285.3677471563306
 30
0.0
 10
370.8972719775511
 20
-284.9840160552749
 30
0.0
 10
374.677226845427
 20
-284.2585979662545
 30
0.0
 10
378.4649097474421
 20
-283.7576295051376
 30
0.0
 10
382.2930181295133
 20
-284.433507942781
 30
0.0
 10
386.7807278260452
 20
-285.225843454994
 30
0.0
 10
388.7625606781658
 20
-286.0169393064216
 30
0.0
 10
393.4133478031426
 20
-285.937958977368
 30
0.0
 10
394.9851105064181
 20
-285.9112670793811
 30
0.0
 10
399.2069835710354
 20
-285.7740618013095
 30
0.0
 10
400.7621702044016
 20
-285.5658667038888
 30
0.0
 10
403.539836298336
 20
-285.1940165023616
 30
0.0
 10
406.2633411803472
 20
-284.9265813548309
 30
0.0
 10
409.0877348235481
 20
-284.868193691108
 30
0.0
 10
409.0877348235481
 20
-284.868193691108
 30
0.0
 10
410.7621500542155
 20
-284.868193691108
 30
0.0
 10
410.7621500542155
 20
-284.868193691108
 30
0.0
 10
413.9669251066771
 20
-284.862511939752
 30
0.0
 10
417.0528443073781
 20
-285.7178921944987
 30
0.0
 10
420.2375672843045
 20
-286.0124208387469
 30
0.0
 10
424.0972112673771
 20
-286.3693673354601
 30
0.0
 10
427.9898910111951
 20
-286.6029745985861
 30
0.0
 10
431.8566061698439
 20
-286.2097960152869
 30
0.0
 10
433.8306059948882
 20
-286.0090750665941
 30
0.0
 10
435.7851003365722
 20
-285.6469132213251
 30
0.0
 10
437.7572061083956
 20
-285.4283670151699
 30
0.0
 10
442.5519827425742
 20
-284.8970204198586
 30
0.0
 10
446.2389962238558
 20
-284.4249167954013
 30
0.0
 10
450.9946271244044
 20
-285.5658667038888
 30
0.0
 10
453.58482807357
 20
-286.1872962454063
 30
0.0
 10
454.6643567305728
 20
-286.5872354785433
 30
0.0
 10
457.320195773591
 20
-286.8681896610733
 30
0.0
 10
460.0954437715845
 20
-287.1617758008842
 30
0.0
 10
463.4614604511407
 20
-287.0246713148144
 30
0.0
 10
466.0643642004034
 20
-286.4960973875905
 30
0.0
 10
467.3697819199479
 20
-286.2310050870919
 30
0.0
 10
480.9171808971078
 20
-283.9595621729786
 30
0.0
 10
486.1756010720892
 20
-282.9703828212369
 30
0.0
 10
489.9043368334787
 20
-282.2689615363888
 30
0.0
 10
493.7028751512626
 20
-281.8805320456067
 30
0.0
 10
497.3814654821217
 20
-280.9869305205766
 30
0.0
 10
501.0612560246882
 20
-280.0930069875285
 30
0.0
 10
504.7545709040351
 20
-280.2361395517892
 30
0.0
 10
508.4597415331555
 20
-280.0342258874089
 30
0.0
 10
510.2545849552953
 20
-279.9364232701273
 30
0.0
 10
512.0606108377142
 20
-279.3549060620189
 30
0.0
 10
513.7787870779721
 20
-278.7551807641321
 30
0.0
 10
515.1849960951331
 20
-278.2643234499837
 30
0.0
 10
515.8029880297108
 20
-276.5898817533407
 30
0.0
 10
515.4889131177661
 20
-274.9639461736797
 30
0.0
 10
515.338711013821
 20
-274.1862821720679
 30
0.0
 10
513.7348183467075
 20
-273.1385412632326
 30
0.0
 10
512.5639679176747
 20
-273.1593986008002
 30
0.0
 10
511.0147287933505
 20
-273.1869888333022
 30
0.0
 10
509.4678900924337
 20
-273.3275306966862
 30
0.0
 10
507.9186802415643
 20
-273.380544925928
 30
0.0
 10
505.3055558972919
 20
-273.4699753347259
 30
0.0
 10
503.0229874208235
 20
-274.6233934205693
 30
0.0
 10
500.7117309572423
 20
-275.6390213479153
 30
0.0
 10
498.7207555777968
 20
-276.5139231989851
 30
0.0
 10
497.0287928330144
 20
-277.9913633638926
 30
0.0
 10
494.7478968293181
 20
-278.2933884754957
 30
0.0
 10
493.6636725570388
 20
-278.4369561595586
 30
0.0
 10
492.5787083210816
 20
-278.5646129093175
 30
0.0
 10
491.5067685540671
 20
-278.7816361532396
 30
0.0
 10
487.8364117125129
 20
-279.5247308425241
 30
0.0
 10
484.1207095778373
 20
-280.0286416493445
 30
0.0
 10
480.4443559900283
 20
-280.7376524040073
 30
0.0
 10
478.1073681584203
 20
-281.1883318994742
 30
0.0
 10
475.7942381936409
 20
-281.7614768990989
 30
0.0
 10
473.4649200075655
 20
-282.2537247024193
 30
0.0
 10
470.9435240384046
 20
-282.786589426265
 30
0.0
 10
468.4263141734809
 20
-283.3510694828447
 30
0.0
 10
465.8874419509484
 20
-283.7860876792247
 30
0.0
 10
463.3004002561793
 20
-284.2293317168078
 30
0.0
 10
461.9100436901172
 20
-284.6539212813741
 30
0.0
 10
459.3201917435508
 20
-284.5891244859968
 30
0.0
 10
456.9444312191554
 20
-284.5296554596544
 30
0.0
 10
453.3245640408313
 20
-283.5088752699421
 30
0.0
 10
450.9481155902176
 20
-283.054243857885
 30
0.0
 10
447.9869444880351
 20
-282.4877585695531
 30
0.0
 10
445.1439195813437
 20
-281.706106156631
 30
0.0
 10
442.0492468820012
 20
-282.017019535303
 30
0.0
 10
441.1072270603618
 20
-282.1116752560383
 30
0.0
 10
440.1589280823537
 20
-282.1502137611724
 30
0.0
 10
439.2196746023255
 20
-282.2649217994285
 30
0.0
 10
436.9593685893233
 20
-282.5410144019097
 30
0.0
 10
434.7040829740654
 20
-282.8581191165749
 30
0.0
 10
432.4441867894529
 20
-283.1377538072602
 30
0.0
 10
430.1821097323482
 20
-283.4176665957793
 30
0.0
 10
427.9173980641826
 20
-283.875942553138
 30
0.0
 10
425.6528766734809
 20
-283.8818704280256
 30
0.0
 10
423.2648652076532
 20
-283.8881203109322
 30
0.0
 10
420.8667836728819
 20
-283.5173719877157
 30
0.0
 10
418.4890179167378
 20
-283.1941930308813
 30
0.0
 10
414.298404346795
 20
-282.624639356648
 30
0.0
 10
410.1565064499373
 20
-281.5601427862102
 30
0.0
 10
405.846876583244
 20
-282.4337800213088
 30
0.0
 10
404.2098032661634
 20
-282.765643371672
 30
0.0
 10
402.5421785439612
 20
-282.91339958545
 30
0.0
 10
400.8762254301291
 20
-283.0348184938202
 30
0.0
 10
398.0057045457179
 20
-283.2440293709706
 30
0.0
 10
395.0577803260448
 20
-283.9086216141895
 30
0.0
 10
392.224009415725
 20
-283.6063486579424
 30
0.0
 10
388.2766594831719
 20
-283.1853085369139
 30
0.0
 10
384.3964628592203
 20
-282.151662797256
 30
0.0
 10
380.4782692890767
 20
-281.4295598155786
 30
0.0
 10
379.3625115046789
 20
-281.223928422256
 30
0.0
 10
378.2129575150584
 20
-281.1043463535352
 30
0.0
 10
377.0806602278881
 20
-281.1160410993016
 30
0.0
 10
376.1513450862512
 20
-281.1256574296749
 30
0.0
 10
375.2259964979348
 20
-281.3976078380983
 30
0.0
 10
374.2965057155607
 20
-281.5373739548922
 30
0.0
 10
371.7789445691651
 20
-281.9159529276512
 30
0.0
 10
369.2547676216609
 20
-282.2536368820502
 30
0.0
 10
366.7432880357983
 20
-282.6686466710944
 30
0.0
 10
364.1767523971212
 20
-283.0927312315707
 30
0.0
 10
361.6659900109371
 20
-283.4468083214615
 30
0.0
 10
359.0378630203413
 20
-282.7811592001335
 30
0.0
 10
356.049387101858
 20
-282.0242500789927
 30
0.0
 10
352.9403264987777
 20
-281.7483184805214
 30
0.0
 10
349.9437784247366
 20
-281.0170382703145
 30
0.0
 10
346.8906740332504
 20
-280.2719556254933
 30
0.0
 10
343.9212112245905
 20
-280.6471974242413
 30
0.0
 10
340.904142457729
 20
-281.0644173592309
 30
0.0
 10
338.1422577272324
 20
-281.446377416185
 30
0.0
 10
335.3680854634813
 20
-281.8902654698049
 30
0.0
 10
332.5905906624466
 20
-281.9602875771188
 30
0.0
 10
330.4106695602659
 20
-282.0152484912005
 30
0.0
 10
328.2144285062341
 20
-281.5653447423247
 30
0.0
 10
326.0307750383836
 20
-281.2964241366217
 30
0.0
 10
322.9150108138256
 20
-280.9127223090209
 30
0.0
 10
319.7946579750032
 20
-280.5502291004632
 30
0.0
 10
316.6936109805674
 20
-280.0673048929539
 30
0.0
 10
313.0613166207422
 20
-279.5016685348528
 30
0.0
 10
309.4506846185323
 20
-278.7983298386225
 30
0.0
 10
305.8248523741713
 20
-278.1893102183813
 30
0.0
 10
303.2769712454801
 20
-277.7613761984094
 30
0.0
 10
300.718870021381
 20
-277.3944919714158
 30
0.0
 10
298.1662831846006
 20
-276.9942799144992
 30
0.0
 10
295.6118813935336
 20
-276.5937751230204
 30
0.0
 10
293.0576735391141
 20
-276.1918652056411
 30
0.0
 10
290.5051928186122
 20
-275.7793436603779
 30
0.0
 10
288.0705523961851
 20
-275.3858205882107
 30
0.0
 10
285.6244258013667
 20
-275.0462631326127
 30
0.0
 10
283.2086045521164
 20
-274.5580257927968
 30
0.0
 10
280.4978642088436
 20
-274.0101730593587
 30
0.0
 10
277.7799262545195
 20
-273.3658203774412
 30
0.0
 10
275.0182973381889
 20
-273.6789061100208
 30
0.0
 10
266.5475609586711
 20
-274.6393421649036
 30
0.0
 10
258.707948449146
 20
-278.1238571647109
 30
0.0
 10
254.9918653996565
 20
-286.2117152018436
 30
0.0
 10
252.9211605630435
 20
-290.7184946608322
 30
0.0
 10
252.2875809589232
 20
-295.7698666958277
 30
0.0
 10
252.3438575901846
 20
-300.7292731676862
 30
0.0
 10
252.3804820461373
 20
-303.9568018188193
 30
0.0
 10
252.7041339197112
 20
-307.209508443073
 30
0.0
 10
253.7036956393122
 20
-310.2785730755513
 30
0.0
 10
254.5290497323258
 20
-312.8127521770493
 30
0.0
 10
255.7207495414359
 20
-317.0086398680232
 30
0.0
 10
256.9837750713359
 20
-319.3555610620097
 30
0.0
 10
258.4356482779613
 20
-322.0533930152469
 30
0.0
 10
260.0043445547235
 20
-322.9690510577075
 30
0.0
 10
262.2395790164155
 20
-325.0642613083364
 30
0.0
 10
266.4420259577082
 20
-329.0034498183686
 30
0.0
 10
273.0418182031317
 20
-328.296064377706
 30
0.0
 10
278.3930964351493
 20
-328.0125037032594
 30
0.0
 10
281.9342294767594
 20
-327.8248608378999
 30
0.0
 10
285.4607697022193
 20
-327.3762305046057
 30
0.0
 10
288.9982289261425
 20
-327.1001525478496
 30
0.0
 10
291.6807423392402
 20
-326.8907887888563
 30
0.0
 10
294.3707717122261
 20
-326.7792276471446
 30
0.0
 10
297.0566076626064
 20
-326.6105686290466
 30
0.0
 10
300.7669340792072
 20
-326.3776104643293
 30
0.0
 10
304.4742965583646
 20
-326.0878325210579
 30
0.0
 10
308.1870160800136
 20
-325.9055467090839
 30
0.0
 10
311.2053362871284
 20
-325.7573205634362
 30
0.0
 10
314.2300088342472
 20
-325.7422886436616
 30
0.0
 10
317.2512051584381
 20
-325.6472816414498
 30
0.0
 10
319.0747072942295
 20
-325.5899349406864
 30
0.0
 10
320.8967091653885
 20
-325.4865264565342
 30
0.0
 10
322.7198161095212
 20
-325.4145723011097
 30
0.0
 10
326.8847775973618
 20
-325.2501725708935
 30
0.0
 10
331.0493292568153
 20
-325.0717801285973
 30
0.0
 10
335.2153079972604
 20
-324.93826389471
 30
0.0
 10
338.6755476180642
 20
-324.8273614057634
 30
0.0
 10
342.1376826951582
 20
-324.7761182206232
 30
0.0
 10
345.5988078380133
 20
-324.69156184229
 30
0.0
 10
348.6605698541816
 20
-324.6167388881513
 30
0.0
 10
351.7221635479764
 20
-324.5350952187127
 30
0.0
 10
354.7836986948587
 20
-324.4514463175219
 30
0.0
 10
357.5656942897895
 20
-324.3754524251344
 30
0.0
 10
360.3475361990741
 20
-324.2937941189666
 30
0.0
 10
363.129392745087
 20
-324.2127066451976
 30
0.0
 10
365.8313986208559
 20
-324.1339756846537
 30
0.0
 10
368.5328483009553
 20
-324.0177015164882
 30
0.0
 10
371.2354176907556
 20
-323.9795728397403
 30
0.0
 10
378.3328988854873
 20
-323.8794137092336
 30
0.0
 10
385.430950912616
 20
-323.7406868001344
 30
0.0
 10
392.5286077480851
 20
-323.7499225755782
 30
0.0
 10
402.9091948799432
 20
-323.7634322756294
 30
0.0
 10
413.2901479300017
 20
-323.8537408881148
 30
0.0
 10
423.6699593152698
 20
-323.9869058405275
 30
0.0
 10
430.1138959628261
 20
-324.0695594442077
 30
0.0
 10
436.5567494925017
 20
-324.2679310203839
 30
0.0
 10
442.9986955450349
 20
-324.461209015175
 30
0.0
 10
446.565958921834
 20
-324.5682327711711
 30
0.0
 10
450.1290361943902
 20
-324.8155642029014
 30
0.0
 10
453.6963142079185
 20
-324.9221049468688
 30
0.0
 10
460.1782331649392
 20
-325.1157049496778
 30
0.0
 10
466.6618646191509
 20
-325.2509922276695
 30
0.0
 10
473.1447642369567
 20
-325.4115132249317
 30
0.0
 10
476.3263059176752
 20
-325.490302732389
 30
0.0
 10
479.5074231332765
 20
-325.5921743600884
 30
0.0
 10
482.6893746423812
 20
-325.6464180744915
 30
0.0
 10
488.3482411039004
 20
-325.7428887495134
 30
0.0
 10
494.0074588468924
 20
-325.8239176763709
 30
0.0
 10
499.6668083204386
 20
-325.8857139424836
 30
0.0
 10
502.5037575110873
 20
-325.9166998959081
 30
0.0
 10
505.3466492133502
 20
-326.0000121523535
 30
0.0
 10
508.1771875170816
 20
-325.8615487043608
 30
0.0
 10
511.2222709815615
 20
-325.712590722309
 30
0.0
 10
514.1104194471627
 20
-326.4227794072995
 30
0.0
 10
517.0306516208002
 20
-327.054720143773
 30
0.0
 10
519.473228809049
 20
-327.5832816695511
 30
0.0
 10
521.8874692916615
 20
-328.184031538407
 30
0.0
 10
524.3945066305423
 20
-327.1226052887814
 30
0.0
 10
525.8371903741718
 20
-326.5117999877111
 30
0.0
 10
526.9979121873475
 20
-325.659576493068
 30
0.0
 10
527.8099871367613
 20
-324.3797263497454
 30
0.0
 10
528.4023062502201
 20
-323.4462104671402
 30
0.0
 10
527.5062164814117
 20
-321.5576773483226
 30
0.0
 10
526.377110000969
 20
-320.83235428646
 30
0.0
 10
524.3273847187629
 20
-319.5156667436495
 30
0.0
 10
522.0157850312225
 20
-319.6721982402614
 30
0.0
 10
519.8665691883034
 20
-319.9822095545642
 30
0.0
 10
516.1468212720538
 20
-320.5187605688334
 30
0.0
 10
512.4839499340706
 20
-321.3885743887604
 30
0.0
 10
508.8829340323191
 20
-322.4642583696241
 30
0.0
 10
506.8614749097123
 20
-323.0681021891141
 30
0.0
 10
505.7620442446569
 20
-323.2815178893779
 30
0.0
 10
503.6921953562232
 20
-323.1885080383545
 30
0.0
 10
502.9064079705058
 20
-323.1532188868623
 30
0.0
 10
501.2563862674579
 20
-323.0503894286576
 30
0.0
 10
500.4710965304967
 20
-323.0309079435319
 30
0.0
 10
496.4908139596773
 20
-322.9321685756513
 30
0.0
 10
492.5099166462787
 20
-322.8568333360308
 30
0.0
 10
488.5290193328801
 20
-322.7842790747527
 30
0.0
 10
483.789105209491
 20
-322.6978784686762
 30
0.0
 10
479.048825167898
 20
-322.6317790044959
 30
0.0
 10
474.3090281383356
 20
-322.5395237071716
 30
0.0
 10
468.0940850505103
 20
-322.4185501638349
 30
0.0
 10
461.8795911842026
 20
-322.2904594022039
 30
0.0
 10
455.6650599633267
 20
-322.164807079198
 30
0.0
 10
444.8228619111815
 20
-321.9455874271753
 30
0.0
 10
433.9806867052248
 20
-321.7251817969918
 30
0.0
 10
423.1385994578704
 20
-321.5005414281695
 30
0.0
 10
423.1385994578704
 20
-321.5005414281695
 30
0.0
 10
390.4793529069166
 20
-320.9492658486615
 30
0.0
 10
390.4793529069166
 20
-320.9492658486615
 30
0.0
 10
389.1979634595791
 20
-320.9976558079688
 30
0.0
 10
387.9166312512143
 20
-321.0480875553749
 30
0.0
 10
386.6348218002804
 20
-321.0800369996632
 30
0.0
 10
384.6731343143319
 20
-321.128938308304
 30
0.0
 10
382.7108467225307
 20
-321.1568798222797
 30
0.0
 10
380.7486762245535
 20
-321.1819379008175
 30
0.0
 10
379.7318041753178
 20
-321.1949206786576
 30
0.0
 10
378.7145076609668
 20
-321.1912468599003
 30
0.0
 10
377.6976209750037
 20
-321.1780298944104
 30
0.0
 10
376.8628590970056
 20
-321.1671694421457
 30
0.0
 10
376.0271458316802
 20
-321.0893752322008
 30
0.0
 10
375.1941549977855
 20
-321.1153407878828
 30
0.0
 10
373.6902750938962
 20
-321.1622075913147
 30
0.0
 10
372.1889858908835
 20
-321.3023396263125
 30
0.0
 10
370.6850767135375
 20
-321.3364139293699
 30
0.0
 10
366.2656996175583
 20
-321.4365437864217
 30
0.0
 10
361.8452394036976
 20
-321.4882260734048
 30
0.0
 10
357.4258330342627
 20
-321.5874630900398
 30
0.0
 10
350.9433432448441
 20
-321.7329960777133
 30
0.0
 10
344.4608461370617
 20
-321.8839885649722
 30
0.0
 10
337.9794175104316
 20
-322.0697432815123
 30
0.0
 10
333.6139767575651
 20
-322.1948433967336
 30
0.0
 10
329.2502265467956
 20
-322.3804371092629
 30
0.0
 10
324.8859933239992
 20
-322.5461102348254
 30
0.0
 10
323.0630034736923
 20
-322.6153126853642
 30
0.0
 10
321.2412284718184
 20
-322.7183991614966
 30
0.0
 10
319.4180190705893
 20
-322.779448954474
 30
0.0
 10
314.3745977529561
 20
-322.9482982500376
 30
0.0
 10
309.3291712035707
 20
-323.0658604502787
 30
0.0
 10
304.287477019855
 20
-323.274565556505
 30
0.0
 10
299.7766093955952
 20
-323.4613009338282
 30
0.0
 10
295.2659466855284
 20
-323.6888142356875
 30
0.0
 10
290.7622071478618
 20
-323.9998739816401
 30
0.0
 10
287.5016750225113
 20
-324.2250746585032
 30
0.0
 10
284.2579861087579
 20
-324.7033882253581
 30
0.0
 10
280.9966440957405
 20
-324.9046145242446
 30
0.0
 10
271.2616083255498
 20
-325.5052705671624
 30
0.0
 10
262.3695529365332
 20
-324.1647532655115
 30
0.0
 10
259.2231676441788
 20
-313.6611945538752
 30
0.0
 10
258.8452794705663
 20
-312.3996927829739
 30
0.0
 10
258.5274860343898
 20
-311.1204691836137
 30
0.0
 10
258.2699918597527
 20
-309.8292005030034
 30
0.0
  0
ENDSEC
  0
SECTION
  2
OBJECTS
  0
DICTIONARY
  5
C
330
0
100
AcDbDictionary
281
     1
  3
ACAD_GROUP
350
D
  3
ACAD_LAYOUT
350
1A
  3
ACAD_MATERIAL
350
3B
  3
ACAD_MLEADERSTYLE
350
43
  3
ACAD_MLINESTYLE
350
17
  3
ACAD_PLOTSETTINGS
350
19
  3
ACAD_PLOTSTYLENAME
350
E
  3
ACAD_TABLESTYLE
350
42
  3
ACAD_VISUALSTYLE
350
2A
  0
SUN
  5
3F
330
29
100
AcDbSun
 90
        1
290
     0
 63
     7
421
 16777215
 40
1.0
291
     1
 91
  2455826
 92
 54000000
292
     0
 70
     2
 71
   256
280
     1
  0
DICTIONARY
  5
D
102
{ACAD_REACTORS
330
C
102
}
330
C
100
AcDbDictionary
281
     1
  0
DICTIONARY
  5
1A
102
{ACAD_REACTORS
330
C
102
}
330
C
100
AcDbDictionary
281
     1
  3
Layout1
350
1E
  3
Layout2
350
26
  3
Model
350
22
  0
DICTIONARY
  5
3B
102
{ACAD_REACTORS
330
C
102
}
330
C
100
AcDbDictionary
281
     1
  3
ByBlock
350
3D
  3
ByLayer
350
3C
  3
Global
350
3E
  0
DICTIONARY
  5
43
102
{ACAD_REACTORS
330
C
102
}
330
C
100
AcDbDictionary
281
     1
  0
DICTIONARY
  5
17
102
{ACAD_REACTORS
330
C
102
}
330
C
100
AcDbDictionary
281
     1
  3
Standard
350
18
  0
DICTIONARY
  5
19
102
{ACAD_REACTORS
330
C
102
}
330
C
100
AcDbDictionary
281
     1
  0
ACDBDICTIONARYWDFLT
  5
E
102
{ACAD_REACTORS
330
C
102
}
330
C
100
AcDbDictionary
281
     1
  3
Normal
350
F
100
AcDbDictionaryWithDefault
340
F
  0
DICTIONARY
  5
42
102
{ACAD_REACTORS
330
C
102
}
330
C
100
AcDbDictionary
281
     1
  0
DICTIONARY
  5
2A
102
{ACAD_REACTORS
330
C
102
}
330
C
100
AcDbDictionary
281
     1
  3
2dWireframe
350
2F
  3
3D Hidden
350
31
  3
3dWireframe
350
30
  3
Basic
350
32
  3
Brighten
350
36
  3
ColorChange
350
3A
  3
Conceptual
350
34
  3
Dim
350
35
  3
Facepattern
350
39
  3
Flat
350
2B
  3
FlatWithEdges
350
2C
  3
Gouraud
350
2D
  3
GouraudWithEdges
350
2E
  3
Linepattern
350
38
  3
Realistic
350
33
  3
Thicken
350
37
  0
LAYOUT
  5
1E
102
{ACAD_REACTORS
330
1A
102
}
330
1A
100
AcDbPlotSettings
  1

  2
none_device
  4

  6

 40
0.0
 41
0.0
 42
0.0
 43
0.0
 44
0.0
 45
0.0
 46
0.0
 47
0.0
 48
0.0
 49
0.0
140
0.0
141
0.0
142
1.0
143
1.0
 70
   688
 72
     0
 73
     0
 74
     5
  7

 75
    16
 76
     0
 77
     2
 78
   300
147
1.0
148
0.0
149
0.0
100
AcDbLayout
  1
Layout1
 70
     1
 71
     1
 10
0.0
 20
0.0
 11
12.0
 21
9.0
 12
0.0
 22
0.0
 32
0.0
 14
1.000000000000000E+20
 24
1.000000000000000E+20
 34
1.000000000000000E+20
 15
-1.000000000000000E+20
 25
-1.000000000000000E+20
 35
-1.000000000000000E+20
146
0.0
 13
0.0
 23
0.0
 33
0.0
 16
1.0
 26
0.0
 36
0.0
 17
0.0
 27
1.0
 37
0.0
 76
     0
330
1B
  0
LAYOUT
  5
26
102
{ACAD_REACTORS
330
1A
102
}
330
1A
100
AcDbPlotSettings
  1

  2
none_device
  4

  6

 40
0.0
 41
0.0
 42
0.0
 43
0.0
 44
0.0
 45
0.0
 46
0.0
 47
0.0
 48
0.0
 49
0.0
140
0.0
141
0.0
142
1.0
143
1.0
 70
   688
 72
     0
 73
     0
 74
     5
  7

 75
    16
 76
     0
 77
     2
 78
   300
147
1.0
148
0.0
149
0.0
100
AcDbLayout
  1
Layout2
 70
     1
 71
     2
 10
0.0
 20
0.0
 11
0.0
 21
0.0
 12
0.0
 22
0.0
 32
0.0
 14
0.0
 24
0.0
 34
0.0
 15
0.0
 25
0.0
 35
0.0
146
0.0
 13
0.0
 23
0.0
 33
0.0
 16
1.0
 26
0.0
 36
0.0
 17
0.0
 27
1.0
 37
0.0
 76
     0
330
23
  0
LAYOUT
  5
22
102
{ACAD_REACTORS
330
1A
102
}
330
1A
100
AcDbPlotSettings
  1

  2
none_device
  4

  6

 40
0.0
 41
0.0
 42
0.0
 43
0.0
 44
0.0
 45
0.0
 46
0.0
 47
0.0
 48
0.0
 49
0.0
140
0.0
141
0.0
142
1.0
143
1.0
 70
  1712
 72
     0
 73
     0
 74
     0
  7

 75
     0
 76
     0
 77
     2
 78
   300
147
1.0
148
0.0
149
0.0
100
AcDbLayout
  1
Model
 70
     1
 71
     0
 10
0.0
 20
0.0
 11
12.0
 21
9.0
 12
0.0
 22
0.0
 32
0.0
 14
1.000000000000000E+20
 24
1.000000000000000E+20
 34
1.000000000000000E+20
 15
-1.000000000000000E+20
 25
-1.000000000000000E+20
 35
-1.000000000000000E+20
146
0.0
 13
0.0
 23
0.0
 33
0.0
 16
1.0
 26
0.0
 36
0.0
 17
0.0
 27
1.0
 37
0.0
 76
     0
330
1F
331
29
  0
MATERIAL
  5
3D
102
{ACAD_REACTORS
330
3B
102
}
330
3B
100
AcDbMaterial
  1
ByBlock
 72
     1
 94
      127
  0
MATERIAL
  5
3C
102
{ACAD_REACTORS
330
3B
102
}
330
3B
100
AcDbMaterial
  1
ByLayer
 72
     1
 94
      127
  0
MATERIAL
  5
3E
102
{ACAD_REACTORS
330
3B
102
}
330
3B
100
AcDbMaterial
  1
Global
 72
     1
 94
      127
  0
MLINESTYLE
  5
18
102
{ACAD_REACTORS
330
17
102
}
330
17
100
AcDbMlineStyle
  2
Standard
 70
     0
  3

 62
   256
 51
90.0
 52
90.0
 71
     2
 49
0.5
 62
   256
  6
BYLAYER
 49
-0.5
 62
   256
  6
BYLAYER
  0
ACDBPLACEHOLDER
  5
F
102
{ACAD_REACTORS
330
E
102
}
330
E
  0
VISUALSTYLE
  5
2F
102
{ACAD_REACTORS
330
2A
102
}
330
2A
100
AcDbVisualStyle
  2
2dWireframe
 70
     4
177
     2
291
     0
 71
     0
176
     1
 72
     2
176
     1
 73
     0
176
     1
 90
        0
176
     1
 40
-0.6
176
     1
 41
-30.0
176
     1
 62
     5
 63
     7
421
 16777215
176
     1
 74
     1
176
     1
 91
        4
176
     1
 64
     7
176
     1
 65
   257
176
     1
 75
     1
176
     1
175
     1
176
     1
 42
1.0
176
     1
 92
        0
176
     1
 66
   257
176
     1
 43
1.0
176
     1
 76
     1
176
     1
 77
     6
176
     1
 78
     2
176
     1
 67
     7
176
     1
 79
     5
176
     1
170
     0
176
     1
171
     0
176
     1
290
     0
176
     1
 93
        1
176
     1
 44
0.0
176
     1
173
     0
176
     1
  0
VISUALSTYLE
  5
31
102
{ACAD_REACTORS
330
2A
102
}
330
2A
100
AcDbVisualStyle
  2
3D Hidden
 70
     6
177
     2
291
     0
 71
     1
176
     1
 72
     2
176
     1
 73
     2
176
     1
 90
        0
176
     1
 40
-0.6
176
     1
 41
-30.0
176
     1
 62
     5
 63
     7
421
 16777215
176
     1
 74
     2
176
     1
 91
        2
176
     1
 64
     7
176
     1
 65
   257
176
     1
 75
     2
176
     1
175
     1
176
     1
 42
40.0
176
     1
 92
        0
176
     1
 66
   257
176
     1
 43
1.0
176
     1
 76
     1
176
     1
 77
     6
176
     1
 78
     2
176
     1
 67
     7
176
     1
 79
     3
176
     1
170
     0
176
     1
171
     0
176
     1
290
     0
176
     1
 93
        1
176
     1
 44
0.0
176
     1
173
     0
176
     1
  0
VISUALSTYLE
  5
30
102
{ACAD_REACTORS
330
2A
102
}
330
2A
100
AcDbVisualStyle
  2
3dWireframe
 70
     5
177
     2
291
     0
 71
     0
176
     1
 72
     2
176
     1
 73
     0
176
     1
 90
        0
176
     1
 40
-0.6
176
     1
 41
-30.0
176
     1
 62
     5
 63
     7
421
 16777215
176
     1
 74
     1
176
     1
 91
        4
176
     1
 64
     7
176
     1
 65
   257
176
     1
 75
     1
176
     1
175
     1
176
     1
 42
1.0
176
     1
 92
        0
176
     1
 66
   257
176
     1
 43
1.0
176
     1
 76
     1
176
     1
 77
     6
176
     1
 78
     2
176
     1
 67
     7
176
     1
 79
     5
176
     1
170
     0
176
     1
171
     0
176
     1
290
     0
176
     1
 93
        1
176
     1
 44
0.0
176
     1
173
     0
176
     1
  0
VISUALSTYLE
  5
32
102
{ACAD_REACTORS
330
2A
102
}
330
2A
100
AcDbVisualStyle
  2
Basic
 70
     7
177
     2
291
     1
 71
     1
176
     1
 72
     0
176
     1
 73
     1
176
     1
 90
        0
176
     1
 40
-0.6
176
     1
 41
-30.0
176
     1
 62
     5
 63
     7
421
 16777215
176
     1
 74
     0
176
     1
 91
        4
176
     1
 64
     7
176
     1
 65
   257
176
     1
 75
     1
176
     1
175
     1
176
     1
 42
1.0
176
     1
 92
        8
176
     1
 66
     7
176
     1
 43
1.0
176
     1
 76
     1
176
     1
 77
     6
176
     1
 78
     2
176
     1
 67
     7
176
     1
 79
     5
176
     1
170
     0
176
     1
171
     0
176
     1
290
     0
176
     1
 93
        1
176
     1
 44
0.0
176
     1
173
     0
176
     1
  0
VISUALSTYLE
  5
36
102
{ACAD_REACTORS
330
2A
102
}
330
2A
100
AcDbVisualStyle
  2
Brighten
 70
    12
177
     2
291
     1
 71
     2
176
     1
 72
     2
176
     1
 73
     0
176
     1
 90
        0
176
     1
 40
-0.6
176
     1
 41
-30.0
176
     1
 62
     5
 63
     7
421
 16777215
176
     1
 74
     1
176
     1
 91
        4
176
     1
 64
     7
176
     1
 65
   257
176
     1
 75
     1
176
     1
175
     1
176
     1
 42
1.0
176
     1
 92
        8
176
     1
 66
     7
176
     1
 43
1.0
176
     1
 76
     1
176
     1
 77
     6
176
     1
 78
     2
176
     1
 67
     7
176
     1
 79
     5
176
     1
170
     0
176
     1
171
     0
176
     1
290
     0
176
     1
 93
        1
176
     1
 44
50.0
176
     1
173
     0
176
     1
  0
VISUALSTYLE
  5
3A
102
{ACAD_REACTORS
330
2A
102
}
330
2A
100
AcDbVisualStyle
  2
ColorChange
 70
    16
177
     2
291
     1
 71
     2
176
     1
 72
     2
176
     1
 73
     3
176
     1
 90
        0
176
     1
 40
-0.6
176
     1
 41
-30.0
176
     1
 62
     5
 63
     8
421
  8421504
176
     1
 74
     1
176
     1
 91
        4
176
     1
 64
     7
176
     1
 65
   257
176
     1
 75
     1
176
     1
175
     1
176
     1
 42
1.0
176
     1
 92
        8
176
     1
 66
     8
424
  8421504
176
     1
 43
1.0
176
     1
 76
     1
176
     1
 77
     6
176
     1
 78
     2
176
     1
 67
     7
176
     1
 79
     5
176
     1
170
     0
176
     1
171
     0
176
     1
290
     0
176
     1
 93
        1
176
     1
 44
0.0
176
     1
173
     0
176
     1
  0
VISUALSTYLE
  5
34
102
{ACAD_REACTORS
330
2A
102
}
330
2A
100
AcDbVisualStyle
  2
Conceptual
 70
     9
177
     2
291
     0
 71
     3
176
     1
 72
     2
176
     1
 73
     0
176
     1
 90
        0
176
     1
 40
-0.6
176
     1
 41
-30.0
176
     1
 62
     5
 63
     7
421
 16777215
176
     1
 74
     2
176
     1
 91
        2
176
     1
 64
     7
176
     1
 65
   257
176
     1
 75
     1
176
     1
175
     1
176
     1
 42
40.0
176
     1
 92
        8
176
     1
 66
     7
176
     1
 43
1.0
176
     1
 76
     1
176
     1
 77
     6
176
     1
 78
     2
176
     1
 67
     7
176
     1
 79
     3
176
     1
170
     0
176
     1
171
     0
176
     1
290
     0
176
     1
 93
        1
176
     1
 44
0.0
176
     1
173
     0
176
     1
  0
VISUALSTYLE
  5
35
102
{ACAD_REACTORS
330
2A
102
}
330
2A
100
AcDbVisualStyle
  2
Dim
 70
    11
177
     2
291
     1
 71
     2
176
     1
 72
     2
176
     1
 73
     0
176
     1
 90
        0
176
     1
 40
-0.6
176
     1
 41
-30.0
176
     1
 62
     5
 63
     7
421
 16777215
176
     1
 74
     1
176
     1
 91
        4
176
     1
 64
     7
176
     1
 65
   257
176
     1
 75
     1
176
     1
175
     1
176
     1
 42
1.0
176
     1
 92
        8
176
     1
 66
     7
176
     1
 43
1.0
176
     1
 76
     1
176
     1
 77
     6
176
     1
 78
     2
176
     1
 67
     7
176
     1
 79
     5
176
     1
170
     0
176
     1
171
     0
176
     1
290
     0
176
     1
 93
        1
176
     1
 44
-50.0
176
     1
173
     0
176
     1
  0
VISUALSTYLE
  5
39
102
{ACAD_REACTORS
330
2A
102
}
330
2A
100
AcDbVisualStyle
  2
Facepattern
 70
    15
177
     2
291
     1
 71
     2
176
     1
 72
     2
176
     1
 73
     0
176
     1
 90
        0
176
     1
 40
-0.6
176
     1
 41
-30.0
176
     1
 62
     5
 63
     7
421
 16777215
176
     1
 74
     1
176
     1
 91
        4
176
     1
 64
     7
176
     1
 65
   257
176
     1
 75
     1
176
     1
175
     1
176
     1
 42
1.0
176
     1
 92
        8
176
     1
 66
     7
176
     1
 43
1.0
176
     1
 76
     1
176
     1
 77
     6
176
     1
 78
     2
176
     1
 67
     7
176
     1
 79
     5
176
     1
170
     0
176
     1
171
     0
176
     1
290
     0
176
     1
 93
        1
176
     1
 44
0.0
176
     1
173
     0
176
     1
  0
VISUALSTYLE
  5
2B
102
{ACAD_REACTORS
330
2A
102
}
330
2A
100
AcDbVisualStyle
  2
Flat
 70
     0
177
     2
291
     1
 71
     2
176
     1
 72
     1
176
     1
 73
     1
176
     1
 90
        2
176
     1
 40
-0.6
176
     1
 41
30.0
176
     1
 62
     5
 63
     7
421
 16777215
176
     1
 74
     0
176
     1
 91
        4
176
     1
 64
     7
176
     1
 65
   257
176
     1
 75
     1
176
     1
175
     1
176
     1
 42
1.0
176
     1
 92
        8
176
     1
 66
     7
176
     1
 43
1.0
176
     1
 76
     1
176
     1
 77
     6
176
     1
 78
     2
176
     1
 67
     7
176
     1
 79
     5
176
     1
170
     0
176
     1
171
     0
176
     1
290
     0
176
     1
 93
       13
176
     1
 44
0.0
176
     1
173
     0
176
     1
  0
VISUALSTYLE
  5
2C
102
{ACAD_REACTORS
330
2A
102
}
330
2A
100
AcDbVisualStyle
  2
FlatWithEdges
 70
     1
177
     2
291
     1
 71
     2
176
     1
 72
     1
176
     1
 73
     1
176
     1
 90
        2
176
     1
 40
-0.6
176
     1
 41
30.0
176
     1
 62
     5
 63
     7
421
 16777215
176
     1
 74
     1
176
     1
 91
        4
176
     1
 64
     7
176
     1
 65
   257
176
     1
 75
     1
176
     1
175
     1
176
     1
 42
1.0
176
     1
 92
        0
176
     1
 66
   257
176
     1
 43
1.0
176
     1
 76
     1
176
     1
 77
     6
176
     1
 78
     2
176
     1
 67
     7
176
     1
 79
     5
176
     1
170
     0
176
     1
171
     0
176
     1
290
     0
176
     1
 93
       13
176
     1
 44
0.0
176
     1
173
     0
176
     1
  0
VISUALSTYLE
  5
2D
102
{ACAD_REACTORS
330
2A
102
}
330
2A
100
AcDbVisualStyle
  2
Gouraud
 70
     2
177
     2
291
     1
 71
     2
176
     1
 72
     2
176
     1
 73
     1
176
     1
 90
        2
176
     1
 40
-0.6
176
     1
 41
30.0
176
     1
 62
     5
 63
     7
421
 16777215
176
     1
 74
     0
176
     1
 91
        4
176
     1
 64
     7
176
     1
 65
   257
176
     1
 75
     1
176
     1
175
     1
176
     1
 42
1.0
176
     1
 92
        0
176
     1
 66
     7
176
     1
 43
1.0
176
     1
 76
     1
176
     1
 77
     6
176
     1
 78
     2
176
     1
 67
     7
176
     1
 79
     5
176
     1
170
     0
176
     1
171
     0
176
     1
290
     0
176
     1
 93
       13
176
     1
 44
0.0
176
     1
173
     0
176
     1
  0
VISUALSTYLE
  5
2E
102
{ACAD_REACTORS
330
2A
102
}
330
2A
100
AcDbVisualStyle
  2
GouraudWithEdges
 70
     3
177
     2
291
     1
 71
     2
176
     1
 72
     2
176
     1
 73
     1
176
     1
 90
        2
176
     1
 40
-0.6
176
     1
 41
30.0
176
     1
 62
     5
 63
     7
421
 16777215
176
     1
 74
     1
176
     1
 91
        4
176
     1
 64
     7
176
     1
 65
   257
176
     1
 75
     1
176
     1
175
     1
176
     1
 42
1.0
176
     1
 92
        0
176
     1
 66
   257
176
     1
 43
1.0
176
     1
 76
     1
176
     1
 77
     6
176
     1
 78
     2
176
     1
 67
     7
176
     1
 79
     5
176
     1
170
     0
176
     1
171
     0
176
     1
290
     0
176
     1
 93
       13
176
     1
 44
0.0
176
     1
173
     0
176
     1
  0
VISUALSTYLE
  5
38
102
{ACAD_REACTORS
330
2A
102
}
330
2A
100
AcDbVisualStyle
  2
Linepattern
 70
    14
177
     2
291
     1
 71
     2
176
     1
 72
     2
176
     1
 73
     0
176
     1
 90
        0
176
     1
 40
-0.6
176
     1
 41
-30.0
176
     1
 62
     5
 63
     7
421
 16777215
176
     1
 74
     1
176
     1
 91
        4
176
     1
 64
     7
176
     1
 65
   257
176
     1
 75
     7
176
     1
175
     7
176
     1
 42
1.0
176
     1
 92
        8
176
     1
 66
     7
176
     1
 43
1.0
176
     1
 76
     1
176
     1
 77
     6
176
     1
 78
     2
176
     1
 67
     7
176
     1
 79
     5
176
     1
170
     0
176
     1
171
     0
176
     1
290
     0
176
     1
 93
        1
176
     1
 44
0.0
176
     1
173
     0
176
     1
  0
VISUALSTYLE
  5
33
102
{ACAD_REACTORS
330
2A
102
}
330
2A
100
AcDbVisualStyle
  2
Realistic
 70
     8
177
     2
291
     0
 71
     2
176
     1
 72
     2
176
     1
 73
     0
176
     1
 90
        0
176
     1
 40
-0.6
176
     1
 41
-30.0
176
     1
 62
     5
 63
     7
421
 16777215
176
     1
 74
     1
176
     1
 91
        0
176
     1
 64
     7
176
     1
 65
   257
176
     1
 75
     1
176
     1
175
     1
176
     1
 42
1.0
176
     1
 92
        8
176
     1
 66
     8
424
  7895160
176
     1
 43
1.0
176
     1
 76
     1
176
     1
 77
     6
176
     1
 78
     2
176
     1
 67
     7
176
     1
 79
     5
176
     1
170
     0
176
     1
171
     0
176
     1
290
     0
176
     1
 93
       13
176
     1
 44
0.0
176
     1
173
     0
176
     1
  0
VISUALSTYLE
  5
37
102
{ACAD_REACTORS
330
2A
102
}
330
2A
100
AcDbVisualStyle
  2
Thicken
 70
    13
177
     2
291
     1
 71
     2
176
     1
 72
     2
176
     1
 73
     0
176
     1
 90
        0
176
     1
 40
-0.6
176
     1
 41
-30.0
176
     1
 62
     5
 63
     7
421
 16777215
176
     1
 74
     1
176
     1
 91
        4
176
     1
 64
     7
176
     1
 65
   257
176
     1
 75
     1
176
     1
175
     1
176
     1
 42
1.0
176
     1
 92
       12
176
     1
 66
     7
176
     1
 43
1.0
176
     1
 76
     1
176
     1
 77
     6
176
     1
 78
     2
176
     1
 67
     7
176
     1
 79
     5
176
     1
170
     0
176
     1
171
     0
176
     1
290
     0
176
     1
 93
        1
176
     1
 44
0.0
176
     1
173
     0
176
     1
  0
ENDSEC
  0
EOF
